# Blender v2.72 (sub 0) OBJ File: ''
# www.blender.org
o Cube.001
v 0.583377 1.914267 0.816353
v -1.416623 1.914267 0.816353
v -1.416623 -0.085734 0.816353
v -0.392069 0.889714 -1.183647
v -0.441177 0.889714 -1.183647
v -0.441177 0.938821 -1.183647
v -0.392069 0.938821 -1.183647
v 0.583377 -0.085733 0.816353
v 0.583377 1.914267 0.816353
v -1.416623 1.914267 0.816353
v -1.416623 -0.085734 0.816353
v 0.583377 -0.085733 0.816353
v -0.404902 1.308306 0.791824
v -0.404902 1.308306 3.825780
v -0.335159 1.301437 0.791824
v -0.335159 1.301437 3.825780
v -0.268097 1.281093 0.791824
v -0.268097 1.281093 3.825780
v -0.206291 1.248058 0.791824
v -0.206291 1.248058 3.825780
v -0.152118 1.203599 0.791824
v -0.152118 1.203599 3.825780
v -0.107660 1.149426 0.791824
v -0.107660 1.149426 3.825780
v -0.074624 1.087621 0.791824
v -0.074624 1.087621 3.825780
v -0.054281 1.020558 0.791824
v -0.054281 1.020558 3.825780
v -0.047412 0.950815 0.791824
v -0.047412 0.950815 3.825780
v -0.054281 0.881072 0.791824
v -0.054281 0.881072 3.825780
v -0.074624 0.814009 0.791824
v -0.074624 0.814009 3.825780
v -0.107660 0.752204 0.791824
v -0.107660 0.752204 3.825780
v -0.152118 0.698031 0.791824
v -0.152118 0.698031 3.825780
v -0.206291 0.653572 0.791824
v -0.206291 0.653572 3.825780
v -0.268097 0.620536 0.791824
v -0.268097 0.620536 3.825780
v -0.335160 0.600193 0.791824
v -0.335160 0.600193 3.825780
v -0.404903 0.593324 0.791824
v -0.404903 0.593324 3.825780
v -0.474646 0.600193 0.791824
v -0.474646 0.600193 3.825780
v -0.541708 0.620537 0.791824
v -0.541708 0.620537 3.825780
v -0.603514 0.653572 0.791824
v -0.603514 0.653572 3.825780
v -0.657687 0.698031 0.791824
v -0.657687 0.698031 3.825780
v -0.702145 0.752204 0.791824
v -0.702145 0.752204 3.825780
v -0.735181 0.814009 0.791824
v -0.735181 0.814009 3.825780
v -0.755524 0.881072 0.791824
v -0.755524 0.881072 3.825780
v -0.762393 0.950815 0.791824
v -0.762393 0.950815 3.825780
v -0.755524 1.020558 0.791824
v -0.755524 1.020558 3.825780
v -0.735181 1.087621 0.791824
v -0.735181 1.087621 3.825780
v -0.702145 1.149426 0.791824
v -0.702145 1.149426 3.825780
v -0.657686 1.203599 0.791824
v -0.657686 1.203599 3.825780
v -0.603513 1.248058 0.791824
v -0.603513 1.248058 3.825780
v -0.541708 1.281093 0.791824
v -0.541708 1.281093 3.825780
v -0.474645 1.301437 0.791824
v -0.474645 1.301437 3.825780
vt 0.999943 0.213138
vt 0.497514 0.152857
vt 0.041850 0.315078
vt 0.000056 0.315078
vt 0.000056 0.273284
vt 0.572255 0.273171
vt 0.572255 0.020257
vt 0.427746 0.252971
vt 0.502486 0.120371
vt 0.427746 0.000056
vt 0.000056 0.060089
vt 0.041850 0.273284
vt 0.000000 0.000000
vn 0.000000 0.000000 1.000000
vn 0.000000 0.000000 -1.000000
vn 0.898800 0.000000 -0.438400
vn 0.000000 0.898800 -0.438400
vn -0.898800 0.000000 -0.438400
vn 0.000000 -0.898800 -0.438400
vn 0.098000 0.995200 0.000000
vn 0.290300 0.956900 -0.000000
vn 0.471400 0.881900 0.000000
vn 0.634400 0.773000 -0.000000
vn 0.773000 0.634400 -0.000000
vn 0.881900 0.471400 0.000000
vn 0.956900 0.290300 0.000000
vn 0.995200 0.098000 -0.000000
vn 0.995200 -0.098000 0.000000
vn 0.956900 -0.290300 0.000000
vn 0.881900 -0.471400 0.000000
vn 0.773000 -0.634400 0.000000
vn 0.634400 -0.773000 0.000000
vn 0.471400 -0.881900 0.000000
vn 0.290300 -0.956900 0.000000
vn 0.098000 -0.995200 0.000000
vn -0.098000 -0.995200 0.000000
vn -0.290300 -0.956900 0.000000
vn -0.471400 -0.881900 0.000000
vn -0.634400 -0.773000 0.000000
vn -0.773000 -0.634400 0.000000
vn -0.881900 -0.471400 0.000000
vn -0.956900 -0.290300 0.000000
vn -0.995200 -0.098000 0.000000
vn -0.995200 0.098000 -0.000000
vn -0.956900 0.290300 -0.000000
vn -0.881900 0.471400 0.000000
vn -0.773000 0.634400 0.000000
vn -0.634400 0.773000 0.000000
vn -0.471400 0.881900 0.000000
vn -0.098000 0.995200 0.000000
vn -0.290300 0.956900 0.000000
vn 0.000100 0.000000 1.000000
s off
f 1/1/1 9/1/1 12/2/1
f 4/3/2 5/4/2 6/5/2
f 7/6/3 1/1/3 4/7/3
f 7/6/4 6/8/4 2/9/4
f 6/8/5 5/10/5 3/11/5
f 8/2/6 3/11/6 5/10/6
f 2/9/1 10/9/1 9/1/1
f 7/12/2 4/3/2 6/5/2
f 4/7/3 1/1/3 8/2/3
f 1/1/4 7/6/4 2/9/4
f 2/9/5 6/8/5 3/11/5
f 4/7/6 8/2/6 5/10/6
f 9/1/1 10/9/1 11/11/1
f 12/2/1 9/1/1 11/11/1
f 3/11/1 11/11/1 10/9/1
f 8/2/1 12/2/1 11/11/1
f 14/13/7 16/13/7 15/13/7
f 16/13/8 18/13/8 17/13/8
f 18/13/9 20/13/9 19/13/9
f 20/13/10 22/13/10 21/13/10
f 22/13/11 24/13/11 23/13/11
f 24/13/12 26/13/12 25/13/12
f 26/13/13 28/13/13 27/13/13
f 28/13/14 30/13/14 29/13/14
f 30/13/15 32/13/15 31/13/15
f 32/13/16 34/13/16 33/13/16
f 34/13/17 36/13/17 35/13/17
f 36/13/18 38/13/18 37/13/18
f 38/13/19 40/13/19 39/13/19
f 40/13/20 42/13/20 41/13/20
f 42/13/21 44/13/21 43/13/21
f 44/13/22 46/13/22 45/13/22
f 46/13/23 48/13/23 47/13/23
f 48/13/24 50/13/24 49/13/24
f 50/13/25 52/13/25 51/13/25
f 52/13/26 54/13/26 53/13/26
f 54/13/27 56/13/27 55/13/27
f 56/13/28 58/13/28 57/13/28
f 58/13/29 60/13/29 59/13/29
f 60/13/30 62/13/30 61/13/30
f 62/13/31 64/13/31 63/13/31
f 64/13/32 66/13/32 65/13/32
f 66/13/33 68/13/33 67/13/33
f 67/13/34 68/13/34 70/13/34
f 70/13/35 72/13/35 71/13/35
f 72/13/36 74/13/36 73/13/36
f 62/13/1 76/13/1 74/13/1
f 76/13/37 14/13/37 13/13/37
f 74/13/38 76/13/38 75/13/38
f 23/13/2 45/13/2 13/13/2
f 8/2/1 1/1/1 12/2/1
f 1/1/1 2/9/1 9/1/1
f 2/9/1 3/11/1 10/9/1
f 3/11/1 8/2/1 11/11/1
f 13/13/7 14/13/7 15/13/7
f 15/13/8 16/13/8 17/13/8
f 17/13/9 18/13/9 19/13/9
f 19/13/10 20/13/10 21/13/10
f 21/13/11 22/13/11 23/13/11
f 23/13/12 24/13/12 25/13/12
f 25/13/13 26/13/13 27/13/13
f 27/13/14 28/13/14 29/13/14
f 29/13/15 30/13/15 31/13/15
f 31/13/16 32/13/16 33/13/16
f 33/13/17 34/13/17 35/13/17
f 35/13/18 36/13/18 37/13/18
f 37/13/19 38/13/19 39/13/19
f 39/13/20 40/13/20 41/13/20
f 41/13/21 42/13/21 43/13/21
f 43/13/22 44/13/22 45/13/22
f 45/13/23 46/13/23 47/13/23
f 47/13/24 48/13/24 49/13/24
f 49/13/25 50/13/25 51/13/25
f 51/13/26 52/13/26 53/13/26
f 53/13/27 54/13/27 55/13/27
f 55/13/28 56/13/28 57/13/28
f 57/13/29 58/13/29 59/13/29
f 59/13/30 60/13/30 61/13/30
f 61/13/31 62/13/31 63/13/31
f 63/13/32 64/13/32 65/13/32
f 65/13/33 66/13/33 67/13/33
f 69/13/34 67/13/34 70/13/34
f 69/13/35 70/13/35 71/13/35
f 71/13/36 72/13/36 73/13/36
f 20/13/1 18/13/1 16/13/1
f 24/13/1 22/13/1 20/13/1
f 28/13/1 26/13/1 24/13/1
f 32/13/1 30/13/1 28/13/1
f 73/13/38 74/13/38 75/13/38
f 36/13/1 34/13/1 38/13/1
f 44/13/1 42/13/1 40/13/1
f 44/13/1 56/13/1 46/13/1
f 48/13/1 54/13/1 50/13/1
f 75/13/37 76/13/37 13/13/37
f 56/13/1 62/13/1 58/13/1
f 48/13/1 56/13/1 54/13/1
f 64/13/39 62/13/39 66/13/39
f 68/13/1 74/13/1 70/13/1
f 62/13/39 60/13/39 58/13/39
f 76/13/1 62/13/1 14/13/1
f 24/13/1 20/13/1 16/13/1
f 62/13/1 56/13/1 40/13/1
f 34/13/1 40/13/1 38/13/1
f 40/13/1 56/13/1 44/13/1
f 54/13/1 52/13/1 50/13/1
f 62/13/1 68/13/1 66/13/1
f 34/13/1 32/13/1 28/13/1
f 28/13/1 24/13/1 16/13/1
f 28/13/1 16/13/1 62/13/1
f 40/13/1 34/13/1 28/13/1
f 62/13/1 16/13/1 14/13/1
f 56/13/1 48/13/1 46/13/1
f 28/13/1 62/13/1 40/13/1
f 68/13/1 62/13/1 74/13/1
f 74/13/1 72/13/1 70/13/1
f 23/13/2 25/13/2 27/13/2
f 73/13/2 75/13/2 71/13/2
f 65/13/2 67/13/2 69/13/2
f 61/13/2 63/13/2 65/13/2
f 57/13/2 59/13/2 61/13/2
f 57/13/2 61/13/2 55/13/2
f 53/13/2 55/13/2 51/13/2
f 45/13/2 47/13/2 49/13/2
f 41/13/2 43/13/2 45/13/2
f 37/13/2 39/13/2 41/13/2
f 33/13/2 35/13/2 37/13/2
f 29/13/2 31/13/2 33/13/2
f 23/13/2 33/13/2 37/13/2
f 27/13/2 29/13/2 33/13/2
f 17/13/2 19/13/2 21/13/2
f 13/13/2 15/13/2 17/13/2
f 75/13/2 13/13/2 61/13/2
f 61/13/2 65/13/2 69/13/2
f 23/13/2 13/13/2 17/13/2
f 37/13/2 41/13/2 45/13/2
f 45/13/2 23/13/2 37/13/2
f 23/13/2 27/13/2 33/13/2
f 21/13/2 23/13/2 17/13/2
f 69/13/2 75/13/2 61/13/2
f 49/13/2 55/13/2 61/13/2
f 45/13/2 49/13/2 61/13/2
f 45/13/2 61/13/2 13/13/2
f 75/13/2 69/13/2 71/13/2
f 55/13/2 49/13/2 51/13/2
